<svg width="21" height="21" viewBox="0 0 21 21" fill="none" xmlns="http://www.w3.org/2000/svg">
<g clip-path="url(#clip0)">
<path d="M10.5 0C8.4233 0 6.39323 0.615814 4.66652 1.76957C2.9398 2.92332 1.59399 4.5632 0.79927 6.48182C0.0045495 8.40045 -0.203386 10.5116 0.201759 12.5484C0.606904 14.5852 1.60693 16.4562 3.07538 17.9246C4.54383 19.3931 6.41476 20.3931 8.45156 20.7982C10.4884 21.2034 12.5996 20.9955 14.5182 20.2007C16.4368 19.406 18.0767 18.0602 19.2304 16.3335C20.3842 14.6068 21 12.5767 21 10.5C21 7.71523 19.8938 5.04451 17.9246 3.07538C15.9555 1.10625 13.2848 0 10.5 0V0ZM10.5 3.5C11.0624 3.5 11.6123 3.66678 12.0799 3.97926C12.5476 4.29173 12.9121 4.73587 13.1273 5.25549C13.3425 5.77512 13.3988 6.3469 13.2891 6.89854C13.1794 7.45017 12.9085 7.95688 12.5108 8.35458C12.1131 8.75229 11.6064 9.02313 11.0548 9.13286C10.5032 9.24258 9.93138 9.18627 9.41175 8.97103C8.89212 8.75579 8.44799 8.3913 8.13551 7.92365C7.82304 7.456 7.65625 6.90619 7.65625 6.34375C7.65625 5.58954 7.95586 4.86622 8.48917 4.33291C9.02248 3.79961 9.7458 3.5 10.5 3.5ZM15.8506 15.015C15.1935 15.794 14.3743 16.4201 13.4501 16.8496C12.5259 17.2791 11.5191 17.5016 10.5 17.5016C9.4809 17.5016 8.47409 17.2791 7.54991 16.8496C6.62573 16.4201 5.80647 15.794 5.14938 15.015C4.987 14.8126 4.88828 14.5665 4.8657 14.308C4.84312 14.0495 4.89768 13.79 5.0225 13.5625C5.58287 12.613 6.38517 11.8292 7.34749 11.2912C8.30981 10.7532 9.39767 10.4801 10.5 10.5C11.6023 10.4801 12.6902 10.7532 13.6525 11.2912C14.6148 11.8292 15.4171 12.613 15.9775 13.5625C16.1023 13.79 16.1569 14.0495 16.1343 14.308C16.1117 14.5665 16.013 14.8126 15.8506 15.015Z" fill="white"/>
</g>
<defs>
<clipPath id="clip0">
<rect width="21" height="21" fill="white"/>
</clipPath>
</defs>
</svg>
