<svg width="21" height="21" viewBox="0 0 21 21" fill="none" xmlns="http://www.w3.org/2000/svg">
<path d="M19.1804 20.1228L17.9026 5.89192C17.8677 5.50328 17.542 5.2056 17.1519 5.2056H14.5166V4.01709C14.5166 1.80207 12.7147 0 10.4998 0C8.28493 0 6.48316 1.80207 6.48316 4.01709V5.2056H3.84614C3.456 5.2056 3.13028 5.50328 3.09541 5.89192L1.81252 20.1788C1.79363 20.3897 1.86418 20.5986 2.00699 20.7548C2.1498 20.911 2.35171 20.9999 2.56326 20.9999H18.4348C18.4354 20.9999 18.4362 20.9999 18.4368 20.9999C18.8532 20.9999 19.1906 20.6624 19.1906 20.2461C19.1905 20.2042 19.1871 20.1629 19.1804 20.1228ZM7.99067 4.01709C7.99067 2.6333 9.11627 1.5075 10.4999 1.5075C11.8835 1.5075 13.0092 2.6333 13.0092 4.01709V5.2056H7.99067V4.01709ZM3.38776 19.4925L4.53527 6.7131H6.48316V8.06101C6.48316 8.47728 6.82054 8.81476 7.23692 8.81476C7.65329 8.81476 7.99067 8.47728 7.99067 8.06101V6.7131H13.0092V8.06101C13.0092 8.47728 13.3466 8.81476 13.763 8.81476C14.1794 8.81476 14.5167 8.47728 14.5167 8.06101V6.7131H16.4628L17.6103 19.4925H3.38776Z" fill="white"/>
</svg>
