<svg width="121" height="320" viewBox="0 0 121 320" fill="none" xmlns="http://www.w3.org/2000/svg">
<g clip-path="url(#clip0)">
<path d="M16.1398 182.712V187.812H104.14V182.712H16.1398ZM104.14 172.512V175.062H16.1398V172.512H104.14ZM104.14 199.925V202.475H16.1398V199.925H104.14ZM104.14 195.462V197.375H16.1398V195.462H104.14ZM104.14 152.75V155.3H16.1398V152.75H104.14ZM104.14 160.4V162.95H16.1398V160.4H104.14ZM104.14 145.1V150.2H16.1398V145.1H104.14ZM104.14 205.025V207.575H16.1398V205.025H104.14ZM104.14 255.387V260.487H16.1398V255.387H104.14ZM104.14 268.137V275.787H16.1398V268.137H104.14ZM104.14 277.7V280.25H16.1398V277.7H104.14ZM104.14 282.8V287.9H16.1398V282.8H104.14ZM104.14 237.537V242.637H16.1398V237.537H104.14ZM104.14 247.737V252.837H16.1398V247.737H104.14ZM104.14 227.975V233.075H16.1398V227.975H104.14ZM104.14 215.225V220.325H16.1398L16.1398 215.225H104.14Z" fill="url(#paint0_linear)"/>
</g>
<g clip-path="url(#clip1)">
<path d="M16.1398 108.404V103.438H104.14V108.404H16.1398ZM104.14 118.338V115.854H16.1398V118.338H104.14ZM104.14 91.6417V89.1584H16.1398V91.6417H104.14ZM104.14 95.9876V94.1251H16.1398V95.9876H104.14ZM104.14 137.583V135.1H16.1398V137.583H104.14ZM104.14 130.133V127.65H16.1398V130.133H104.14ZM104.14 145.033V140.067H16.1398V145.033H104.14ZM104.14 86.6751V84.1917H16.1398V86.6751H104.14ZM104.14 37.6292V32.6626H16.1398V37.6292H104.14ZM104.14 25.2126V17.7626H16.1398L16.1398 25.2126H104.14ZM104.14 15.9001V13.4167H16.1398V15.9001H104.14ZM104.14 10.9334V5.96674H16.1398V10.9334H104.14ZM104.14 55.0126V50.0459H16.1398V55.0126H104.14ZM104.14 45.0792V40.1126H16.1398V45.0792H104.14ZM104.14 64.3251V59.3584H16.1398V64.3251H104.14ZM104.14 76.7417V71.7751H16.1398V76.7417H104.14Z" fill="url(#paint1_linear)"/>
</g>
<defs>
<linearGradient id="paint0_linear" x1="60.1398" y1="145.101" x2="60.1398" y2="287.899" gradientUnits="userSpaceOnUse">
<stop/>
<stop offset="1" stop-color="#240000"/>
</linearGradient>
<linearGradient id="paint1_linear" x1="60.1398" y1="145.033" x2="60.1398" y2="5.96736" gradientUnits="userSpaceOnUse">
<stop/>
<stop offset="1" stop-color="#3E0000"/>
</linearGradient>
<clipPath id="clip0">
<rect width="153" height="120" fill="white" transform="matrix(0 1 1 0 0.139832 140)"/>
</clipPath>
<clipPath id="clip1">
<rect width="149" height="120" fill="white" transform="translate(0.139832 150) rotate(-90)"/>
</clipPath>
</defs>
</svg>
