<svg width="84" height="75" viewBox="0 0 84 75" fill="none" xmlns="http://www.w3.org/2000/svg">
<g clip-path="url(#clip0)">
<path d="M83.9999 37.5C83.9999 75 83.9999 75 42 75C-6.10352e-05 75 -6.10355e-05 75 -6.10352e-05 37.5C-6.10348e-05 0 -6.10352e-05 0 42 0C83.9999 0 83.9999 -5.72205e-06 83.9999 37.5Z" fill="white"/>
<path d="M43.92 51.375H31.68V50.475L35.16 50.1375V39H22.52V50.1375L26 50.475V51.375H13.72V50.475L17.2 50.1375V27.5625L13.72 27.225V26.325H26V27.225L22.52 27.5625V37.65H35.16V27.5625L31.68 27.225V26.325H43.92V27.225L40.44 27.5625V50.1375L43.92 50.475V51.375ZM48.2916 50.1C47.1716 49.425 46.6116 48.5625 46.6116 47.5125C46.6116 46.0624 47.8384 45.1624 50.2916 44.8125C50.7184 47.1375 51.6248 48.75 53.0116 49.65C54.2384 50.4499 55.5316 50.85 56.8916 50.85C58.2784 50.85 59.4648 50.4626 60.4516 49.6875C61.4648 48.8876 61.9716 47.5875 61.9716 45.7875C61.9716 44.4375 61.4516 43.3751 60.4116 42.6C59.3984 41.8001 58.1048 41.1 56.5316 40.5C54.9584 39.9 53.8916 39.4875 53.3316 39.2625C52.7716 39.0124 52.0516 38.6501 51.1716 38.175C50.3184 37.6999 49.6784 37.25 49.2516 36.825C48.1848 35.675 47.6516 34.35 47.6516 32.85C47.6516 30.5 48.5848 28.725 50.4516 27.525C52.3184 26.325 54.9184 25.725 58.2516 25.725C60.1448 25.725 62.3448 25.925 64.8516 26.325V31.875H63.5316L61.9316 27.45C60.5984 27.05 59.2384 26.85 57.8516 26.85C56.4916 26.85 55.3048 27.2625 54.2916 28.0875C53.2784 28.8875 52.7716 30.0875 52.7716 31.6875C52.7716 33.5125 53.6516 34.875 55.4116 35.775C56.2916 36.2 57.3316 36.625 58.5316 37.05C59.7316 37.475 60.5984 37.8 61.1316 38.025C61.6648 38.2249 62.3716 38.5624 63.2516 39.0375C64.1316 39.4875 64.7848 39.9375 65.2116 40.3875C65.6384 40.8375 66.0248 41.4375 66.3716 42.1875C66.7184 42.9124 66.8916 43.7126 66.8916 44.5875C66.8916 46.7126 65.9316 48.45 64.0116 49.8C62.0916 51.15 59.4648 51.825 56.1316 51.825C52.8248 51.825 50.2116 51.2501 48.2916 50.1Z" fill="#0084A2"/>
</g>
<defs>
<clipPath id="clip0">
<rect width="84" height="75" fill="white"/>
</clipPath>
</defs>
</svg>
