<svg width="98" height="252" viewBox="0 0 98 252" fill="none" xmlns="http://www.w3.org/2000/svg">
<g clip-path="url(#clip0)">
<path d="M28.5833 160.415V164.654H84.9333V160.415H28.5833ZM84.9333 151.936V154.056H28.5833L28.5833 151.936H84.9333ZM84.9333 174.722V176.842H28.5833V174.722H84.9333ZM84.9333 171.013V172.603H28.5833V171.013H84.9333ZM84.9333 135.509V137.629H28.5833V135.509H84.9333ZM84.9333 141.868V143.988H28.5833V141.868H84.9333ZM84.9333 129.15V133.39H28.5833V129.15H84.9333ZM84.9333 178.962V181.081H28.5833V178.962H84.9333ZM84.9333 220.824V225.064H28.5833V220.824H84.9333ZM84.9333 231.422V237.781H28.5833V231.422H84.9333ZM84.9333 239.371V241.491H28.5833V239.371H84.9333ZM84.9333 243.61V247.85H28.5833V243.61H84.9333ZM84.9333 205.987V210.226H28.5833V205.987H84.9333ZM84.9333 214.465V218.705H28.5833V214.465H84.9333ZM84.9333 198.038V202.278H28.5833L28.5833 198.038H84.9333ZM84.9333 187.44V191.679H28.5833V187.44H84.9333Z" fill="url(#paint0_linear)"/>
</g>
<g clip-path="url(#clip1)">
<path d="M28.5833 97.2983V92.8004H84.9333V97.2983H28.5833ZM84.9333 106.294V104.045H28.5833V106.294H84.9333ZM84.9333 82.118V79.8691H28.5833V82.118H84.9333ZM84.9333 86.0537V84.367H28.5833V86.0537H84.9333ZM84.9333 123.723V121.474H28.5833V123.723H84.9333ZM84.9333 116.976V114.727H28.5833V116.976H84.9333ZM84.9333 130.47V125.972H28.5833V130.47H84.9333ZM84.9333 77.6202V75.3713H28.5833V77.6202H84.9333ZM84.9333 33.204V28.7062H28.5833V33.204H84.9333ZM84.9333 21.9594V15.2126H28.5833V21.9594H84.9333ZM84.9333 13.5259V11.277H28.5833L28.5833 13.5259H84.9333ZM84.9333 9.0281V4.53025H28.5833V9.0281H84.9333ZM84.9333 48.9465V44.4486H28.5833V48.9465H84.9333ZM84.9333 39.9508V35.4529H28.5833V39.9508H84.9333ZM84.9333 57.3799V52.8821H28.5833V57.3799H84.9333ZM84.9333 68.6245V64.1267H28.5833V68.6245H84.9333Z" fill="url(#paint1_linear)"/>
</g>
<defs>
<linearGradient id="paint0_linear" x1="56.7583" y1="129.151" x2="56.7583" y2="247.849" gradientUnits="userSpaceOnUse">
<stop/>
<stop offset="1" stop-color="#240000"/>
</linearGradient>
<linearGradient id="paint1_linear" x1="56.7583" y1="130.469" x2="56.7583" y2="4.53081" gradientUnits="userSpaceOnUse">
<stop/>
<stop offset="1" stop-color="#3E0000"/>
</linearGradient>
<clipPath id="clip0">
<rect width="127" height="98" fill="white" transform="matrix(0 1 1 0 0 125)"/>
</clipPath>
<clipPath id="clip1">
<rect width="135" height="98" fill="white" transform="translate(0 135) rotate(-90)"/>
</clipPath>
</defs>
</svg>
